<svg xmlns="http://www.w3.org/2000/svg" viewBox="0 0 600 560" width="100%" height="100%">
  <defs>
    <filter id="shadow" x="-5%" y="-5%" width="110%" height="115%">
      <feDropShadow dx="0" dy="4" stdDeviation="8" flood-color="#000000" flood-opacity="0.12"/>
    </filter>
  </defs>
  <rect width="600" height="560" fill="#f1f3f4"/>
  <rect x="75" y="30" width="450" height="500" rx="12" fill="#ffffff" filter="url(#shadow)"/>

  <!-- App Header -->
  <circle cx="120" cy="70" r="18" fill="#1a73e8"/>
  <text x="113" y="77" style="font-family:sans-serif;font-size:18px;font-weight:bold;fill:#ffffff;">D</text>
  <text x="150" y="68" style="font-family:sans-serif;font-size:18px;font-weight:bold;fill:#202124;">Desktop Assistant</text>
  <text x="150" y="85" style="font-family:sans-serif;font-size:12px;fill:#5f6368;">wants access to your Google Account</text>

  <!-- User Card -->
  <rect x="100" y="110" width="400" height="40" rx="6" fill="#f8f9fa" stroke="#dadce0"/>
  <circle cx="120" cy="130" r="10" fill="#e8710a"/>
  <text x="140" y="135" style="font-family:sans-serif;font-size:12px;fill:#202124;font-weight:500;">owner@example.com</text>

  <text x="100" y="180" style="font-family:sans-serif;font-size:13px;font-weight:bold;fill:#202124;">Select what Desktop Assistant can access:</text>

  <!-- Scope 1: Gmail -->
  <rect x="100" y="200" width="400" height="70" rx="8" fill="#f8f9fa" stroke="#dadce0"/>
  <rect x="115" y="215" width="18" height="18" rx="3" fill="#1a73e8"/>
  <text x="119" y="229" style="font-family:sans-serif;font-size:14px;fill:#ffffff;">✓</text>
  <text x="145" y="228" style="font-family:sans-serif;font-size:13px;font-weight:600;fill:#202124;">View your email messages and settings</text>
  <text x="145" y="248" style="font-family:sans-serif;font-size:11.5px;fill:#5f6368;">Read messages and metadata (gmail.readonly)</text>

  <!-- Scope 2: Drive -->
  <rect x="100" y="285" width="400" height="70" rx="8" fill="#f8f9fa" stroke="#dadce0"/>
  <rect x="115" y="300" width="18" height="18" rx="3" fill="#1a73e8"/>
  <text x="119" y="314" style="font-family:sans-serif;font-size:14px;fill:#ffffff;">✓</text>
  <text x="145" y="313" style="font-family:sans-serif;font-size:13px;font-weight:600;fill:#202124;">See and download all your Google Drive files</text>
  <text x="145" y="333" style="font-family:sans-serif;font-size:11.5px;fill:#5f6368;">Read docs, sheets, PDFs, and images (drive.readonly)</text>

  <!-- Warning Box -->
  <rect x="100" y="370" width="400" height="60" rx="6" fill="#fef7e0" stroke="#f9ab00"/>
  <text x="115" y="392" style="font-family:sans-serif;font-size:11.5px;font-weight:bold;fill:#b06000;">⚠️ Lưu ý quan trọng:</text>
  <text x="115" y="412" style="font-family:sans-serif;font-size:11.5px;fill:#3c4043;">Bắt buộc phải tích chọn CẢ HAI ô để connector hoạt động đầy đủ.</text>

  <!-- Action Buttons -->
  <rect x="290" y="455" width="100" height="38" rx="6" fill="#f1f3f4"/>
  <text x="320" y="479" style="font-family:sans-serif;font-size:13px;font-weight:500;fill:#1a73e8;">Cancel</text>
  
  <rect x="400" y="455" width="100" height="38" rx="6" fill="#1a73e8"/>
  <text x="425" y="479" style="font-family:sans-serif;font-size:13px;font-weight:bold;fill:#ffffff;">Continue</text>
  <text x="405" y="515" style="font-family:sans-serif;font-size:11px;font-weight:bold;fill:#d93025;">← Bước 3: Bấm Continue</text>
</svg>
